# xmcd
#
# Track frame offsets: 
#        150
#        28870
#        52796
#        72387
#        88932
#        122982
#        146614
#        168961
#        194437
#        217038
#        256576
#        274397
#        300645
#        327992
#
# Disc length: 4620 seconds
#
# Revision: 1
# Processed by: cddbd v1.5.2PL0 Copyright (c) Steve Scherf et al.
# Submitted via: ExactAudioCopy v1.0b3
#
DISCID=d4120a0e
DTITLE=Varioua Artists - Time Blues  vol.21
DYEAR=2007
DGENRE=Blues
TTITLE0=Blues Company - Blues In a Feeling
TTITLE1=Mighty Sam McClain - Why Do We Have to say Goodbye
TTITLE2=The Rocky Athas - No More
TTITLE3=Jonathan Kalb - Hamburg Rain
TTITLE4=Gregg Wright - A House Divided
TTITLE5=Larry Lavey - Break to me it gently if you please
TTITLE6=Pinetop Perkins - Whos OlMuddy Shoes
TTITLE7=Guitar Jack - Europa
TTITLE8=Sky High - Money Blues
TTITLE9=Cuby plus Blizzards - Last Minute Flight
TTITLE10=Paul Filipowicz - Guitar Jones
TTITLE11=Ricky Nye - Chicken a la Blues
TTITLE12=The Dangertones - All The Things Ive Got
TTITLE13=Snowy White - All my money
EXTD=YEAR: 207
EXTT0=
EXTT1=
EXTT2=
EXTT3=
EXTT4=
EXTT5=
EXTT6=
EXTT7=
EXTT8=
EXTT9=
EXTT10=
EXTT11=
EXTT12=
EXTT13=
PLAYORDER=
